<svg width="675" height="366" viewBox="0 0 675 366" fill="none" xmlns="http://www.w3.org/2000/svg">
<path d="M674.22 362.89H632.131V166.47H632.711C618.131 42.58 457.471 14.58 370.041 74.97C357.461 83.65 346.391 94.17 337.501 106.5C322.841 126.81 314.071 152.03 314.121 182.06C315.151 215.25 323.721 240.81 337.501 260.41C329.311 272.08 319.281 281.64 307.901 289.44C252.181 226.59 252.81 137.73 304.96 74.97C314.2 63.85 325.051 53.55 337.501 44.36C370.751 19.81 415.351 3.19 470.781 0C583.571 0.01 675.001 81.41 675.001 181.84C673.861 183.72 674.26 355.48 674.22 362.89Z" fill="white"/>
<path d="M574.45 319.24V361.33C466.77 374.47 388.33 353.61 337.5 316.31C326.29 308.08 316.43 299.06 307.9 289.44C319.28 281.64 329.31 272.08 337.5 260.41C345.69 272.08 355.72 281.64 367.1 289.44C423.37 328.04 512.51 323.7 574.45 319.24Z" fill="white"/>
<path d="M42.29 166.47H42.87V362.89H0.78C0.74 355.48 1.14 183.72 0 181.84C0 81.41 91.43 0.01 204.22 0C259.65 3.19 304.25 19.81 337.5 44.36C325.05 53.55 314.2 63.85 304.96 74.97C217.53 14.58 56.87 42.58 42.29 166.47Z" fill="white"/>
<path d="M367.101 289.441C358.571 299.061 348.711 308.081 337.501 316.311C286.671 353.611 208.231 374.471 100.551 361.331V319.241C162.491 323.701 251.631 328.041 307.901 289.441C319.281 281.641 329.311 272.081 337.501 260.411C351.281 240.811 359.851 215.251 360.881 182.061C360.931 152.031 352.161 126.811 337.501 106.501C346.391 94.1707 357.461 83.6507 370.041 74.9707C422.191 137.731 422.821 226.591 367.101 289.441Z" fill="white"/>
</svg>
